<mxfile host="app.diagrams.net" modified="2023-01-29T11:31:41.434Z" agent="5.0 (Macintosh)" etag="01u1GbJg1lB23zBdp5bq" version="20.5.3" type="github">
  <diagram id="ERy5cmdqRieVJY0Wvs2K" name="Page-1">
    <mxGraphModel dx="1694" dy="1053" grid="1" gridSize="10" guides="1" tooltips="1" connect="1" arrows="1" fold="1" page="1" pageScale="1" pageWidth="850" pageHeight="1100" math="0" shadow="0">
      <root>
        <mxCell id="0" />
        <mxCell id="1" parent="0" />
        <mxCell id="TchNHPj4xIEFroDG848J-1" value="" style="whiteSpace=wrap;html=1;aspect=fixed;movable=0;resizable=0;rotatable=0;deletable=0;editable=0;connectable=0;" parent="1" vertex="1">
          <mxGeometry x="40" y="120" width="640" height="640" as="geometry" />
        </mxCell>
        <mxCell id="TchNHPj4xIEFroDG848J-2" value="" style="rounded=0;whiteSpace=wrap;html=1;fillColor=#dae8fc;strokeColor=#6c8ebf;" parent="1" vertex="1">
          <mxGeometry x="40" y="640" width="30" height="120" as="geometry" />
        </mxCell>
        <mxCell id="TchNHPj4xIEFroDG848J-3" value="T" style="rounded=0;whiteSpace=wrap;html=1;fillColor=#dae8fc;strokeColor=#6c8ebf;" parent="1" vertex="1">
          <mxGeometry x="140" y="640" width="470" height="120" as="geometry" />
        </mxCell>
        <mxCell id="TchNHPj4xIEFroDG848J-4" value="" style="rounded=0;whiteSpace=wrap;html=1;fillColor=#f8cecc;strokeColor=#b85450;" parent="1" vertex="1">
          <mxGeometry x="40" y="280" width="40" height="240" as="geometry" />
        </mxCell>
        <mxCell id="TchNHPj4xIEFroDG848J-6" value="" style="endArrow=none;html=1;rounded=0;" parent="1" edge="1">
          <mxGeometry width="50" height="50" relative="1" as="geometry">
            <mxPoint x="40" y="240" as="sourcePoint" />
            <mxPoint x="230" y="130" as="targetPoint" />
          </mxGeometry>
        </mxCell>
        <mxCell id="TchNHPj4xIEFroDG848J-10" value="" style="endArrow=none;html=1;rounded=0;exitX=-0.003;exitY=0.086;exitDx=0;exitDy=0;exitPerimeter=0;" parent="1" source="TchNHPj4xIEFroDG848J-1" edge="1">
          <mxGeometry width="50" height="50" relative="1" as="geometry">
            <mxPoint x="10" y="203.2" as="sourcePoint" />
            <mxPoint x="110" y="120" as="targetPoint" />
          </mxGeometry>
        </mxCell>
        <mxCell id="TchNHPj4xIEFroDG848J-11" value="&lt;font style=&quot;font-size: 26px;&quot;&gt;TV&lt;/font&gt;" style="text;html=1;strokeColor=none;fillColor=none;align=center;verticalAlign=middle;whiteSpace=wrap;rounded=0;" parent="1" vertex="1">
          <mxGeometry x="80" y="155" width="60" height="30" as="geometry" />
        </mxCell>
        <mxCell id="TchNHPj4xIEFroDG848J-26" value="&lt;font style=&quot;font-size: 38.9px;&quot;&gt;CAVE&lt;/font&gt;" style="text;html=1;strokeColor=none;fillColor=none;align=center;verticalAlign=middle;whiteSpace=wrap;rounded=0;fontSize=26;" parent="1" vertex="1">
          <mxGeometry x="274" y="686" width="190" height="30" as="geometry" />
        </mxCell>
        <mxCell id="TchNHPj4xIEFroDG848J-27" value="&lt;div style=&quot;font-size: 10.19px;&quot;&gt;&lt;font style=&quot;font-size: 10.19px;&quot;&gt;P&lt;/font&gt;&lt;/div&gt;&lt;div style=&quot;font-size: 10.19px;&quot;&gt;&lt;font style=&quot;font-size: 10.19px;&quot;&gt;O&lt;/font&gt;&lt;/div&gt;&lt;div style=&quot;font-size: 10.19px;&quot;&gt;&lt;font style=&quot;font-size: 10.19px;&quot;&gt;R&lt;/font&gt;&lt;/div&gt;&lt;div style=&quot;font-size: 10.19px;&quot;&gt;&lt;font style=&quot;font-size: 10.19px;&quot;&gt;T&lt;/font&gt;&lt;/div&gt;&lt;div style=&quot;font-size: 10.19px;&quot;&gt;&lt;font style=&quot;font-size: 10.19px;&quot;&gt;E&lt;/font&gt;&lt;/div&gt;" style="text;html=1;strokeColor=none;fillColor=none;align=center;verticalAlign=middle;whiteSpace=wrap;rounded=0;fontSize=38.9;" parent="1" vertex="1">
          <mxGeometry x="40" y="640" width="25" height="120" as="geometry" />
        </mxCell>
        <mxCell id="TchNHPj4xIEFroDG848J-28" value="&lt;div&gt;R&lt;/div&gt;&lt;div&gt;A&lt;/div&gt;&lt;div&gt;D&lt;/div&gt;&lt;div&gt;I&lt;/div&gt;&lt;div&gt;A&lt;/div&gt;&lt;div&gt;T&lt;/div&gt;&lt;div&gt;E&lt;/div&gt;&lt;div&gt;U&lt;/div&gt;&lt;div&gt;R&lt;br&gt;&lt;/div&gt;" style="text;html=1;strokeColor=none;fillColor=none;align=center;verticalAlign=middle;whiteSpace=wrap;rounded=0;fontSize=10.19;" parent="1" vertex="1">
          <mxGeometry x="30" y="385" width="60" height="30" as="geometry" />
        </mxCell>
        <mxCell id="TchNHPj4xIEFroDG848J-29" value="" style="whiteSpace=wrap;html=1;aspect=fixed;movable=0;resizable=0;rotatable=0;deletable=0;editable=0;connectable=0;" parent="1" vertex="1">
          <mxGeometry x="1030" y="123.2" width="640" height="640" as="geometry" />
        </mxCell>
        <mxCell id="TchNHPj4xIEFroDG848J-30" value="" style="rounded=0;whiteSpace=wrap;html=1;fillColor=#dae8fc;strokeColor=#6c8ebf;" parent="1" vertex="1">
          <mxGeometry x="1030" y="643.2" width="30" height="120" as="geometry" />
        </mxCell>
        <mxCell id="TchNHPj4xIEFroDG848J-31" value="" style="rounded=0;whiteSpace=wrap;html=1;fillColor=#dae8fc;strokeColor=#6c8ebf;" parent="1" vertex="1">
          <mxGeometry x="1130" y="643.2" width="470" height="120" as="geometry" />
        </mxCell>
        <mxCell id="TchNHPj4xIEFroDG848J-32" value="" style="rounded=0;whiteSpace=wrap;html=1;fillColor=#f8cecc;strokeColor=#b85450;" parent="1" vertex="1">
          <mxGeometry x="1030" y="283.2" width="40" height="240" as="geometry" />
        </mxCell>
        <mxCell id="TchNHPj4xIEFroDG848J-33" value="" style="endArrow=none;html=1;rounded=0;" parent="1" edge="1">
          <mxGeometry width="50" height="50" relative="1" as="geometry">
            <mxPoint x="1030" y="243.2" as="sourcePoint" />
            <mxPoint x="1180" y="120" as="targetPoint" />
          </mxGeometry>
        </mxCell>
        <mxCell id="TchNHPj4xIEFroDG848J-34" value="" style="endArrow=none;html=1;rounded=0;entryX=0.088;entryY=-0.005;entryDx=0;entryDy=0;entryPerimeter=0;exitX=-0.003;exitY=0.086;exitDx=0;exitDy=0;exitPerimeter=0;" parent="1" source="TchNHPj4xIEFroDG848J-29" target="TchNHPj4xIEFroDG848J-29" edge="1">
          <mxGeometry width="50" height="50" relative="1" as="geometry">
            <mxPoint x="1000" y="206.39999999999998" as="sourcePoint" />
            <mxPoint x="1122.88" y="83.19999999999996" as="targetPoint" />
          </mxGeometry>
        </mxCell>
        <mxCell id="TchNHPj4xIEFroDG848J-35" value="&lt;font style=&quot;font-size: 26px;&quot;&gt;TV&lt;/font&gt;" style="text;html=1;strokeColor=none;fillColor=none;align=center;verticalAlign=middle;whiteSpace=wrap;rounded=0;" parent="1" vertex="1">
          <mxGeometry x="1043" y="158.2" width="60" height="30" as="geometry" />
        </mxCell>
        <mxCell id="TchNHPj4xIEFroDG848J-36" value="&lt;font style=&quot;font-size: 38.9px;&quot;&gt;CAVE&lt;/font&gt;" style="text;html=1;strokeColor=none;fillColor=none;align=center;verticalAlign=middle;whiteSpace=wrap;rounded=0;fontSize=26;" parent="1" vertex="1">
          <mxGeometry x="1264" y="689.2" width="190" height="30" as="geometry" />
        </mxCell>
        <mxCell id="TchNHPj4xIEFroDG848J-37" value="&lt;div style=&quot;font-size: 10.19px;&quot;&gt;&lt;font style=&quot;font-size: 10.19px;&quot;&gt;P&lt;/font&gt;&lt;/div&gt;&lt;div style=&quot;font-size: 10.19px;&quot;&gt;&lt;font style=&quot;font-size: 10.19px;&quot;&gt;O&lt;/font&gt;&lt;/div&gt;&lt;div style=&quot;font-size: 10.19px;&quot;&gt;&lt;font style=&quot;font-size: 10.19px;&quot;&gt;R&lt;/font&gt;&lt;/div&gt;&lt;div style=&quot;font-size: 10.19px;&quot;&gt;&lt;font style=&quot;font-size: 10.19px;&quot;&gt;T&lt;/font&gt;&lt;/div&gt;&lt;div style=&quot;font-size: 10.19px;&quot;&gt;&lt;font style=&quot;font-size: 10.19px;&quot;&gt;E&lt;/font&gt;&lt;/div&gt;" style="text;html=1;strokeColor=none;fillColor=none;align=center;verticalAlign=middle;whiteSpace=wrap;rounded=0;fontSize=38.9;" parent="1" vertex="1">
          <mxGeometry x="1030" y="643.2" width="25" height="120" as="geometry" />
        </mxCell>
        <mxCell id="TchNHPj4xIEFroDG848J-38" value="&lt;div&gt;R&lt;/div&gt;&lt;div&gt;A&lt;/div&gt;&lt;div&gt;D&lt;/div&gt;&lt;div&gt;I&lt;/div&gt;&lt;div&gt;A&lt;/div&gt;&lt;div&gt;T&lt;/div&gt;&lt;div&gt;E&lt;/div&gt;&lt;div&gt;U&lt;/div&gt;&lt;div&gt;R&lt;br&gt;&lt;/div&gt;" style="text;html=1;strokeColor=none;fillColor=none;align=center;verticalAlign=middle;whiteSpace=wrap;rounded=0;fontSize=10.19;" parent="1" vertex="1">
          <mxGeometry x="1020" y="388.2" width="60" height="30" as="geometry" />
        </mxCell>
        <mxCell id="TchNHPj4xIEFroDG848J-39" value="" style="whiteSpace=wrap;html=1;aspect=fixed;" parent="1" vertex="1">
          <mxGeometry x="1830" y="119.99999999999999" width="640" height="640" as="geometry" />
        </mxCell>
        <mxCell id="TchNHPj4xIEFroDG848J-40" value="" style="rounded=0;whiteSpace=wrap;html=1;fillColor=#dae8fc;strokeColor=#6c8ebf;" parent="1" vertex="1">
          <mxGeometry x="1830" y="640" width="30" height="120" as="geometry" />
        </mxCell>
        <mxCell id="TchNHPj4xIEFroDG848J-41" value="" style="rounded=0;whiteSpace=wrap;html=1;fillColor=#dae8fc;strokeColor=#6c8ebf;" parent="1" vertex="1">
          <mxGeometry x="1930" y="640" width="470" height="120" as="geometry" />
        </mxCell>
        <mxCell id="TchNHPj4xIEFroDG848J-42" value="" style="rounded=0;whiteSpace=wrap;html=1;fillColor=#f8cecc;strokeColor=#b85450;" parent="1" vertex="1">
          <mxGeometry x="1830" y="280" width="40" height="240" as="geometry" />
        </mxCell>
        <mxCell id="TchNHPj4xIEFroDG848J-43" value="" style="endArrow=none;html=1;rounded=0;entryX=0.192;entryY=-0.005;entryDx=0;entryDy=0;entryPerimeter=0;" parent="1" target="TchNHPj4xIEFroDG848J-39" edge="1">
          <mxGeometry width="50" height="50" relative="1" as="geometry">
            <mxPoint x="1830" y="240.00000000000006" as="sourcePoint" />
            <mxPoint x="1880" y="190" as="targetPoint" />
          </mxGeometry>
        </mxCell>
        <mxCell id="TchNHPj4xIEFroDG848J-44" value="" style="endArrow=none;html=1;rounded=0;entryX=0.088;entryY=-0.005;entryDx=0;entryDy=0;entryPerimeter=0;exitX=-0.003;exitY=0.086;exitDx=0;exitDy=0;exitPerimeter=0;" parent="1" source="TchNHPj4xIEFroDG848J-39" target="TchNHPj4xIEFroDG848J-39" edge="1">
          <mxGeometry width="50" height="50" relative="1" as="geometry">
            <mxPoint x="1800" y="203.2" as="sourcePoint" />
            <mxPoint x="1922.88" y="79.99999999999996" as="targetPoint" />
          </mxGeometry>
        </mxCell>
        <mxCell id="TchNHPj4xIEFroDG848J-45" value="&lt;font style=&quot;font-size: 26px;&quot;&gt;TV&lt;/font&gt;" style="text;html=1;strokeColor=none;fillColor=none;align=center;verticalAlign=middle;whiteSpace=wrap;rounded=0;" parent="1" vertex="1">
          <mxGeometry x="1843" y="155" width="60" height="30" as="geometry" />
        </mxCell>
        <mxCell id="TchNHPj4xIEFroDG848J-46" value="&lt;font style=&quot;font-size: 38.9px;&quot;&gt;CAVE&lt;/font&gt;" style="text;html=1;strokeColor=none;fillColor=none;align=center;verticalAlign=middle;whiteSpace=wrap;rounded=0;fontSize=26;" parent="1" vertex="1">
          <mxGeometry x="2064" y="686" width="190" height="30" as="geometry" />
        </mxCell>
        <mxCell id="TchNHPj4xIEFroDG848J-47" value="&lt;div style=&quot;font-size: 10.19px;&quot;&gt;&lt;font style=&quot;font-size: 10.19px;&quot;&gt;P&lt;/font&gt;&lt;/div&gt;&lt;div style=&quot;font-size: 10.19px;&quot;&gt;&lt;font style=&quot;font-size: 10.19px;&quot;&gt;O&lt;/font&gt;&lt;/div&gt;&lt;div style=&quot;font-size: 10.19px;&quot;&gt;&lt;font style=&quot;font-size: 10.19px;&quot;&gt;R&lt;/font&gt;&lt;/div&gt;&lt;div style=&quot;font-size: 10.19px;&quot;&gt;&lt;font style=&quot;font-size: 10.19px;&quot;&gt;T&lt;/font&gt;&lt;/div&gt;&lt;div style=&quot;font-size: 10.19px;&quot;&gt;&lt;font style=&quot;font-size: 10.19px;&quot;&gt;E&lt;/font&gt;&lt;/div&gt;" style="text;html=1;strokeColor=none;fillColor=none;align=center;verticalAlign=middle;whiteSpace=wrap;rounded=0;fontSize=38.9;" parent="1" vertex="1">
          <mxGeometry x="1830" y="640" width="25" height="120" as="geometry" />
        </mxCell>
        <mxCell id="TchNHPj4xIEFroDG848J-48" value="&lt;div&gt;R&lt;/div&gt;&lt;div&gt;A&lt;/div&gt;&lt;div&gt;D&lt;/div&gt;&lt;div&gt;I&lt;/div&gt;&lt;div&gt;A&lt;/div&gt;&lt;div&gt;T&lt;/div&gt;&lt;div&gt;E&lt;/div&gt;&lt;div&gt;U&lt;/div&gt;&lt;div&gt;R&lt;br&gt;&lt;/div&gt;" style="text;html=1;strokeColor=none;fillColor=none;align=center;verticalAlign=middle;whiteSpace=wrap;rounded=0;fontSize=10.19;" parent="1" vertex="1">
          <mxGeometry x="1820" y="385" width="60" height="30" as="geometry" />
        </mxCell>
        <mxCell id="TchNHPj4xIEFroDG848J-59" value="" style="rounded=1;whiteSpace=wrap;html=1;fontSize=10.19;" parent="1" vertex="1">
          <mxGeometry x="1210" y="125" width="200" height="60" as="geometry" />
        </mxCell>
        <mxCell id="TchNHPj4xIEFroDG848J-60" value="" style="shape=parallelogram;perimeter=parallelogramPerimeter;whiteSpace=wrap;html=1;fixedSize=1;fontSize=10.19;rotation=-15;" parent="1" vertex="1">
          <mxGeometry x="110" y="440" width="90" height="140" as="geometry" />
        </mxCell>
        <mxCell id="TchNHPj4xIEFroDG848J-61" value="" style="rounded=1;whiteSpace=wrap;html=1;fontSize=10.19;" parent="1" vertex="1">
          <mxGeometry x="448" y="120" width="200" height="60" as="geometry" />
        </mxCell>
        <mxCell id="TchNHPj4xIEFroDG848J-62" value="" style="rounded=1;whiteSpace=wrap;html=1;fontSize=10.19;" parent="1" vertex="1">
          <mxGeometry x="580" y="210" width="100" height="370" as="geometry" />
        </mxCell>
        <mxCell id="TchNHPj4xIEFroDG848J-63" value="&lt;font style=&quot;font-size: 16px;&quot;&gt;TABLE DE SALON&lt;br style=&quot;font-size: 16px;&quot;&gt;&lt;/font&gt;" style="text;html=1;strokeColor=none;fillColor=default;align=center;verticalAlign=middle;whiteSpace=wrap;rounded=1;fontSize=10.19;" parent="1" vertex="1">
          <mxGeometry x="1230" y="140" width="160" height="30" as="geometry" />
        </mxCell>
        <mxCell id="TchNHPj4xIEFroDG848J-64" value="&lt;font style=&quot;font-size: 20px;&quot;&gt;ARMOIRE&lt;/font&gt;" style="text;html=1;strokeColor=none;fillColor=none;align=center;verticalAlign=middle;whiteSpace=wrap;rounded=0;fontSize=10.19;" parent="1" vertex="1">
          <mxGeometry x="469" y="135" width="160" height="30" as="geometry" />
        </mxCell>
        <mxCell id="TchNHPj4xIEFroDG848J-65" value="&lt;div&gt;RELAX&lt;/div&gt;&lt;div&gt;/&lt;br&gt;&lt;/div&gt;&lt;div&gt;FAUTEUIL&lt;br&gt;&lt;/div&gt;" style="text;html=1;strokeColor=none;fillColor=none;align=center;verticalAlign=middle;whiteSpace=wrap;rounded=0;fontSize=20;rotation=-15;" parent="1" vertex="1">
          <mxGeometry x="130" y="450" width="50" height="120" as="geometry" />
        </mxCell>
        <mxCell id="TchNHPj4xIEFroDG848J-66" value="" style="rounded=1;whiteSpace=wrap;html=1;fontSize=20;arcSize=0;rotation=-15;" parent="1" vertex="1">
          <mxGeometry x="215" y="232.5" width="210" height="350" as="geometry" />
        </mxCell>
        <mxCell id="TchNHPj4xIEFroDG848J-67" value="&lt;div&gt;L&lt;/div&gt;&lt;div&gt;I&lt;/div&gt;&lt;div&gt;T&lt;br&gt;&lt;/div&gt;" style="text;html=1;strokeColor=none;fillColor=none;align=center;verticalAlign=middle;whiteSpace=wrap;rounded=0;fontSize=20;rotation=-15;" parent="1" vertex="1">
          <mxGeometry x="274" y="332.5" width="60" height="135" as="geometry" />
        </mxCell>
        <mxCell id="TchNHPj4xIEFroDG848J-69" value="&lt;div&gt;C&lt;/div&gt;&lt;div&gt;A&lt;/div&gt;&lt;div&gt;N&lt;/div&gt;&lt;div&gt;A&lt;/div&gt;&lt;div&gt;P&lt;/div&gt;&lt;div&gt;É&lt;br&gt;&lt;/div&gt;" style="text;html=1;strokeColor=none;fillColor=none;align=center;verticalAlign=middle;whiteSpace=wrap;rounded=0;fontSize=20;" parent="1" vertex="1">
          <mxGeometry x="600" y="246.39999999999998" width="60" height="276.8" as="geometry" />
        </mxCell>
        <mxCell id="TchNHPj4xIEFroDG848J-70" value="" style="rounded=1;whiteSpace=wrap;html=1;fontSize=20;" parent="1" vertex="1">
          <mxGeometry x="466" y="447.5" width="93" height="60" as="geometry" />
        </mxCell>
        <mxCell id="TchNHPj4xIEFroDG848J-73" value="&lt;div&gt;MOR&lt;/div&gt;&lt;div&gt;PHINE&lt;/div&gt;" style="text;html=1;strokeColor=none;fillColor=none;align=center;verticalAlign=middle;whiteSpace=wrap;rounded=0;fontSize=20;" parent="1" vertex="1">
          <mxGeometry x="482.5" y="462.5" width="60" height="30" as="geometry" />
        </mxCell>
        <mxCell id="TchNHPj4xIEFroDG848J-74" value="" style="rounded=1;whiteSpace=wrap;html=1;fontSize=20;rotation=-15;" parent="1" vertex="1">
          <mxGeometry x="1120" y="230" width="210" height="350" as="geometry" />
        </mxCell>
        <mxCell id="TchNHPj4xIEFroDG848J-75" value="&lt;div&gt;L&lt;/div&gt;&lt;div&gt;I&lt;/div&gt;&lt;div&gt;T&lt;br&gt;&lt;/div&gt;" style="text;html=1;strokeColor=none;fillColor=none;align=center;verticalAlign=middle;whiteSpace=wrap;rounded=0;fontSize=20;rotation=-15;" parent="1" vertex="1">
          <mxGeometry x="1190" y="327.5" width="60" height="135" as="geometry" />
        </mxCell>
        <mxCell id="TchNHPj4xIEFroDG848J-78" value="" style="rounded=1;whiteSpace=wrap;html=1;fontSize=20;" parent="1" vertex="1">
          <mxGeometry x="1053.5" y="538.59" width="93" height="60" as="geometry" />
        </mxCell>
        <mxCell id="TchNHPj4xIEFroDG848J-79" value="&lt;div&gt;MOR&lt;/div&gt;&lt;div&gt;PHINE&lt;/div&gt;" style="text;html=1;strokeColor=none;fillColor=none;align=center;verticalAlign=middle;whiteSpace=wrap;rounded=0;fontSize=20;" parent="1" vertex="1">
          <mxGeometry x="1070" y="553.59" width="60" height="30" as="geometry" />
        </mxCell>
        <mxCell id="TchNHPj4xIEFroDG848J-80" value="" style="rounded=1;whiteSpace=wrap;html=1;fontSize=10.19;" parent="1" vertex="1">
          <mxGeometry x="1450" y="125" width="200" height="60" as="geometry" />
        </mxCell>
        <mxCell id="TchNHPj4xIEFroDG848J-81" value="&lt;font style=&quot;font-size: 20px;&quot;&gt;ARMOIRE&lt;/font&gt;" style="text;html=1;strokeColor=none;fillColor=none;align=center;verticalAlign=middle;whiteSpace=wrap;rounded=0;fontSize=10.19;" parent="1" vertex="1">
          <mxGeometry x="1471" y="140" width="160" height="30" as="geometry" />
        </mxCell>
        <mxCell id="TchNHPj4xIEFroDG848J-85" value="" style="rounded=1;whiteSpace=wrap;html=1;fontSize=10.19;" parent="1" vertex="1">
          <mxGeometry x="1570" y="210" width="100" height="270" as="geometry" />
        </mxCell>
        <mxCell id="TchNHPj4xIEFroDG848J-86" value="&lt;div style=&quot;font-size: 20px;&quot;&gt;&lt;font style=&quot;font-size: 20px;&quot;&gt;C&lt;/font&gt;&lt;/div&gt;&lt;div style=&quot;font-size: 20px;&quot;&gt;&lt;font style=&quot;font-size: 20px;&quot;&gt;A&lt;/font&gt;&lt;/div&gt;&lt;div style=&quot;font-size: 20px;&quot;&gt;&lt;font style=&quot;font-size: 20px;&quot;&gt;N&lt;/font&gt;&lt;/div&gt;&lt;div style=&quot;font-size: 20px;&quot;&gt;&lt;font style=&quot;font-size: 20px;&quot;&gt;A&lt;/font&gt;&lt;/div&gt;&lt;div style=&quot;font-size: 20px;&quot;&gt;&lt;font style=&quot;font-size: 20px;&quot;&gt;P&lt;/font&gt;&lt;/div&gt;&lt;div style=&quot;font-size: 20px;&quot;&gt;&lt;font style=&quot;font-size: 20px;&quot;&gt;É&lt;br style=&quot;font-size: 20px;&quot;&gt;&lt;/font&gt;&lt;/div&gt;&lt;div style=&quot;font-size: 20px;&quot;&gt;&lt;font style=&quot;font-size: 20px;&quot;&gt;-&lt;/font&gt;&lt;/div&gt;&lt;div style=&quot;font-size: 20px;&quot;&gt;&lt;font style=&quot;font-size: 20px;&quot;&gt;L&lt;/font&gt;&lt;/div&gt;&lt;div style=&quot;font-size: 20px;&quot;&gt;&lt;font style=&quot;font-size: 20px;&quot;&gt;I&lt;/font&gt;&lt;/div&gt;&lt;div style=&quot;font-size: 20px;&quot;&gt;&lt;font style=&quot;font-size: 20px;&quot;&gt;T&lt;br style=&quot;font-size: 20px;&quot;&gt;&lt;/font&gt;&lt;/div&gt;" style="text;html=1;strokeColor=none;fillColor=none;align=center;verticalAlign=middle;whiteSpace=wrap;rounded=0;fontSize=20;" parent="1" vertex="1">
          <mxGeometry x="1590" y="232.5" width="60" height="230" as="geometry" />
        </mxCell>
        <mxCell id="TchNHPj4xIEFroDG848J-88" value="" style="rounded=0;whiteSpace=wrap;html=1;strokeColor=default;fontFamily=Helvetica;fontSize=20;fontColor=default;fillColor=#000033;dashed=1;strokeWidth=3;fillStyle=hatch;" parent="1" vertex="1">
          <mxGeometry x="1360" y="210" width="210" height="270" as="geometry" />
        </mxCell>
        <mxCell id="WkIkqAgkAF1c_FRq6uk9-3" value="" style="shape=parallelogram;perimeter=parallelogramPerimeter;whiteSpace=wrap;html=1;fixedSize=1;strokeColor=default;fontFamily=Helvetica;fontSize=20;fontColor=default;fillColor=default;direction=north;rotation=5;size=33.940000000000055;" vertex="1" parent="1">
          <mxGeometry x="1479.3" y="511.09" width="150.65" height="100" as="geometry" />
        </mxCell>
        <mxCell id="WkIkqAgkAF1c_FRq6uk9-4" value="&lt;div&gt;RELAX&lt;/div&gt;&lt;div&gt;/ FAUTEUIL&lt;br&gt;&lt;/div&gt;" style="text;html=1;strokeColor=none;fillColor=none;align=center;verticalAlign=middle;whiteSpace=wrap;rounded=0;fontSize=20;rotation=15;" vertex="1" parent="1">
          <mxGeometry x="1484.63" y="538.59" width="140" height="45" as="geometry" />
        </mxCell>
        <mxCell id="WkIkqAgkAF1c_FRq6uk9-9" value="" style="rounded=1;whiteSpace=wrap;html=1;fontSize=10.19;" vertex="1" parent="1">
          <mxGeometry x="240" y="120" width="200" height="60" as="geometry" />
        </mxCell>
        <mxCell id="WkIkqAgkAF1c_FRq6uk9-10" value="&lt;font style=&quot;font-size: 16px;&quot;&gt;TABLE DE SALON&lt;br style=&quot;font-size: 16px;&quot;&gt;&lt;/font&gt;" style="text;html=1;strokeColor=none;fillColor=default;align=center;verticalAlign=middle;whiteSpace=wrap;rounded=1;fontSize=10.19;" vertex="1" parent="1">
          <mxGeometry x="260" y="135" width="160" height="30" as="geometry" />
        </mxCell>
      </root>
    </mxGraphModel>
  </diagram>
</mxfile>
